/* XPM */
static const char *sound_low[] = {
/* columns rows colors chars-per-pixel */
"16 16 62 1 ",
"  c #3F3F3F",
". c #494949",
"X c #515150",
"o c #535353",
"O c #5F5F5D",
"+ c #5F5F5F",
"@ c #61615F",
"# c #646360",
"$ c #646460",
"% c #656560",
"& c #656561",
"* c #676763",
"= c #656565",
"- c #696966",
"; c #696967",
": c #6C6C69",
"> c #6D6D69",
", c #6F6F6B",
"< c #6F6F6E",
"1 c #72716E",
"2 c #73736F",
"3 c #727272",
"4 c #747471",
"5 c #777772",
"6 c #787775",
"7 c #787877",
"8 c #7B7B78",
"9 c gray49",
"0 c #7F7F7C",
"q c #E1404F",
"w c #E14A57",
"e c #ED4D55",
"r c #E9505A",
"t c #E95961",
"y c #EC656B",
"u c #838381",
"i c #838383",
"p c #858583",
"a c #858584",
"s c gray52",
"d c #878785",
"f c gray53",
"g c #8A8A88",
"h c #8B8B88",
"j c #8D8D8B",
"k c #90908F",
"l c #91918F",
"z c gray57",
"x c #929291",
"c c #9A9A99",
"v c #9B9B99",
"b c #9D9D9B",
"n c gray62",
"m c #A2A2A1",
"M c #A3A3A1",
"N c #A6A6A5",
"B c #A9A9A9",
"V c #AFAFAD",
"C c gray73",
"Z c #BCBCBC",
"A c #C3C3C2",
"S c None",
/* pixels */
"SSSSSSSSSSSSSSSS",
"SSSSSSSSSSSSSSSS",
"SSSSSSSpSSSSSSSS",
"SSSSSgduSSSSSSSS",
"SSSSgbV0SSSSSSSS",
"jzkkMBM6SSSSSSSS",
"gAZCnuz1SSSySSSS",
"dNdd03d>SrStwSSS",
"uc=+X.;;SrSrqSSS",
"8c7<X +&SSSeSSSS",
"41>>>X@&SSSSSSSS",
"SSSS&>4&SSSSSSSS",
"SSSSS##&SSSSSSSS",
"SSSSSSS&SSSSSSSS",
"SSSSSSSSSSSSSSSS",
"SSSSSSSSSSSSSSSS"
};
