/* XPM */
static const char *sound_full[] = {
/* columns rows colors chars-per-pixel */
"16 16 79 1 ",
"  c #3F3F3F",
". c #494949",
"X c #515150",
"o c #535353",
"O c #5F5F5D",
"+ c #5F5F5F",
"@ c #61615F",
"# c #646360",
"$ c #646460",
"% c #656560",
"& c #656561",
"* c #676763",
"= c #656565",
"- c #696966",
"; c #696967",
": c #6C6C69",
"> c #6D6D69",
", c #6F6F6B",
"< c #6F6F6E",
"1 c #72716E",
"2 c #73736F",
"3 c #727272",
"4 c #747471",
"5 c #777772",
"6 c #787775",
"7 c #787877",
"8 c #7B7B78",
"9 c gray49",
"0 c #7F7F7C",
"q c #E1172C",
"w c #E12034",
"e c #E12438",
"r c #E1293B",
"t c #E62E3D",
"y c #ED323D",
"u c #ED353F",
"i c #E13042",
"p c #E13243",
"a c #ED3B45",
"s c #E13A4A",
"d c #E13B4B",
"f c #E1404F",
"g c #E14A57",
"h c #ED4D55",
"j c #E9505A",
"k c #ED535A",
"l c #E15763",
"z c #E65A63",
"x c #E95961",
"c c #ED5B61",
"v c #EC656B",
"b c #EC696D",
"n c #838381",
"m c #838383",
"M c #858583",
"N c #858584",
"B c gray52",
"V c #878785",
"C c gray53",
"Z c #8A8A88",
"A c #8B8B88",
"S c #8D8D8B",
"D c #90908F",
"F c #91918F",
"G c gray57",
"H c #929291",
"J c #9A9A99",
"K c #9B9B99",
"L c #9D9D9B",
"P c gray62",
"I c #A2A2A1",
"U c #A3A3A1",
"Y c #A6A6A5",
"T c #A9A9A9",
"R c #AFAFAD",
"E c gray73",
"W c #BCBCBC",
"Q c #C3C3C2",
"! c None",
/* pixels */
"!!!!!!!!!!!!!!!!",
"!!!!!!!!!!!!!!!!",
"!!!!!!!M!!!!!!!!",
"!!!!!ZVn!!!!!!!!",
"!!!!ZLR0!!!!!bl!",
"SGDDUTU6!!!!!zc!",
"ZQWEPnG1!!!v!!ks",
"VYVV03V>!j!xg!si",
"nJ=+X.;;!j!jf!ir",
"8J7<X +&!!!h!!aw",
"41>>>X@&!!!!!tu!",
"!!!!&>4&!!!!eyq!",
"!!!!!##&!!!!!!!!",
"!!!!!!!&!!!!!!!!",
"!!!!!!!!!!!!!!!!",
"!!!!!!!!!!!!!!!!"
};
