/* XPM */
static const char *sound_mute[] = {
/* columns rows colors chars-per-pixel */
"16 16 61 1 ",
"  c #474040",
". c #515150",
"X c #5F5F5D",
"o c #61615F",
"O c #646360",
"+ c #646460",
"@ c #656560",
"# c #656561",
"$ c #676763",
"% c #656565",
"& c #696966",
"* c #6F6866",
"= c #6D6D69",
"- c #726B68",
"; c #736C68",
": c #747471",
"> c #777772",
", c #7B7B78",
"< c #A65757",
"1 c #B0615F",
"2 c #B26363",
"3 c #B66765",
"4 c #B56666",
"5 c #B86969",
"6 c #CC4D4D",
"7 c #CD4F4E",
"8 c #D35454",
"9 c #D45555",
"0 c #D65454",
"q c #D85959",
"w c #E14E4E",
"e c #E74F4F",
"r c #EB4F4F",
"t c #EE4E4E",
"y c #E45150",
"u c #E45151",
"i c #E65454",
"p c #C87878",
"a c #838381",
"s c #858583",
"d c gray52",
"f c #878785",
"g c gray53",
"h c #8A8A88",
"j c #8B8B88",
"k c #8D8D8B",
"l c #90908F",
"z c #91918F",
"x c #929291",
"c c #9A9A99",
"v c #9B9B99",
"b c #9D9D9B",
"n c gray62",
"m c #A3A3A1",
"M c #A6A6A5",
"N c #A9A9A9",
"B c #AFAFAD",
"V c gray73",
"C c #BCBCBC",
"Z c #C3C3C2",
"A c None",
/* pixels */
"AAAAAAAAAAAAAAAA",
"AAAAAAAAAAAAAAAA",
"AAAAAAAAAAAsAAAA",
"AAAAAAAAAjdaAAAA",
"AAAAAAAAjbB4tAAA",
"AAAAkxllmNpytAAA",
"AAAAjZCVn5i0AAAA",
"AAAAdMdd4yq;AAAA",
"AAAAac%<w7*&AAAA",
"AAAA,c2y7 X$AAAA",
"AAAA:1y8-.o$AAAA",
"AAAA0reA$=:$AAAA",
"AAAAttAAAOO$AAAA",
"AAAAAAAAAAA$AAAA",
"AAAAAAAAAAAAAAAA",
"AAAAAAAAAAAAAAAA"
};
