/* XPM */
static const char *sound_none[] = {
/* columns rows colors chars-per-pixel */
"16 16 56 1 ",
"  c #3F3F3F",
". c #494949",
"X c #515150",
"o c #535353",
"O c #5F5F5D",
"+ c #5F5F5F",
"@ c #61615F",
"# c #646360",
"$ c #646460",
"% c #656560",
"& c #656561",
"* c #676763",
"= c #656565",
"- c #696966",
"; c #696967",
": c #6C6C69",
"> c #6D6D69",
", c #6F6F6B",
"< c #6F6F6E",
"1 c #72716E",
"2 c #73736F",
"3 c #727272",
"4 c #747471",
"5 c #777772",
"6 c #787775",
"7 c #787877",
"8 c #7B7B78",
"9 c gray49",
"0 c #7F7F7C",
"q c #838381",
"w c #838383",
"e c #858583",
"r c #858584",
"t c gray52",
"y c #878785",
"u c gray53",
"i c #8A8A88",
"p c #8B8B88",
"a c #8D8D8B",
"s c #90908F",
"d c #91918F",
"f c gray57",
"g c #929291",
"h c #9A9A99",
"j c #9B9B99",
"k c #9D9D9B",
"l c gray62",
"z c #A2A2A1",
"x c #A3A3A1",
"c c #A6A6A5",
"v c #A9A9A9",
"b c #AFAFAD",
"n c gray73",
"m c #BCBCBC",
"M c #C3C3C2",
"N c None",
/* pixels */
"NNNNNNNNNNNNNNNN",
"NNNNNNNNNNNNNNNN",
"NNNNNNNeNNNNNNNN",
"NNNNNiyqNNNNNNNN",
"NNNNikb0NNNNNNNN",
"afssxvx6NNNNNNNN",
"iMmnlqf1NNNNNNNN",
"ycyy03y>NNNNNNNN",
"qh=+X.;;NNNNNNNN",
"8h7<X +&NNNNNNNN",
"41>>>X@&NNNNNNNN",
"NNNN&>4&NNNNNNNN",
"NNNNN##&NNNNNNNN",
"NNNNNNN&NNNNNNNN",
"NNNNNNNNNNNNNNNN",
"NNNNNNNNNNNNNNNN"
};
